<svg version="1.1" id="Layer_1" xmlns="http://www.w3.org/2000/svg" xmlns:xlink="http://www.w3.org/1999/xlink" x="0px" y="0px"
	 width="100%" viewBox="0 0 992 992" enable-background="new 0 0 992 992" xml:space="preserve">
<path fill="#000000" opacity="1.000000" stroke="none" 
	d="
M635.059326,339.769897 
	C679.512817,339.109558 722.518250,344.894440 764.025696,359.733276 
	C801.442444,373.109680 835.023743,392.632385 861.185547,423.272369 
	C882.589355,448.339935 894.601196,477.414856 895.003418,510.405609 
	C895.371521,540.596619 885.326538,567.922974 868.075317,592.597168 
	C851.870300,615.774780 830.868530,633.768982 807.038269,648.654419 
	C804.444458,650.274597 801.455688,653.010254 798.850586,649.109253 
	C796.304932,645.297363 799.754578,643.449524 802.297302,641.619629 
	C825.006531,625.277344 844.399170,605.825378 858.709290,581.592957 
	C872.018616,559.055420 878.841858,534.853943 876.592651,508.583221 
	C874.969299,489.622620 868.212219,472.343201 857.537354,456.640228 
	C838.464905,428.584167 812.228821,409.092743 782.298706,394.062683 
	C778.327393,392.068359 774.451172,393.748077 770.572388,394.337646 
	C752.400452,397.099762 734.917175,402.425446 717.710144,408.741302 
	C716.978699,409.009796 716.093689,409.289764 715.888000,410.709534 
	C722.202393,414.348999 728.707764,417.967773 735.084900,421.800110 
	C750.706726,431.187927 765.045959,442.290283 778.448792,454.619110 
	C779.306274,455.407837 780.139404,456.229980 780.918030,457.095764 
	C782.007019,458.306519 782.605286,459.630981 781.306335,461.078186 
	C780.170410,462.343750 778.867493,461.986298 777.696045,461.212769 
	C775.751770,459.928833 773.853027,458.569550 771.992249,457.166290 
	C750.590698,441.027405 727.396179,428.039642 702.687012,417.716034 
	C701.043213,417.029205 699.525330,416.201965 697.499573,417.186035 
	C683.863892,423.809784 670.355164,430.650299 657.719055,439.082520 
	C657.043762,439.533142 656.474487,440.142731 655.832703,440.698364 
	C656.558716,443.079376 658.723083,443.473297 660.398682,444.358765 
	C672.961487,450.997467 684.729492,458.832947 695.828247,467.688965 
	C696.739197,468.415863 697.677246,469.124695 698.494202,469.949432 
	C699.614624,471.080658 700.369629,472.406708 699.195923,473.928467 
	C698.041931,475.424622 696.625549,475.217773 695.224792,474.268280 
	C693.570190,473.146667 691.931946,472.000366 690.299988,470.845856 
	C677.745850,461.964691 664.401123,454.506226 650.360352,448.226044 
	C647.348694,446.878998 645.233032,447.202911 642.642090,449.065826 
	C628.954529,458.907288 616.070251,469.700287 603.797119,481.239868 
	C603.433044,481.582184 603.095886,481.953278 602.729919,482.293396 
	C601.268433,483.651642 599.701904,485.562439 597.679688,483.565979 
	C595.709534,481.620911 597.500122,479.871429 598.771484,478.381409 
	C602.447205,474.073456 606.073425,469.711426 609.957520,465.595612 
	C616.365112,458.805725 623.204224,452.455750 630.381165,446.474609 
	C631.759399,445.325989 633.365356,444.348511 634.247559,442.157715 
	C626.387512,438.615112 618.156738,436.662201 610.031921,434.530212 
	C594.407776,430.430389 578.436707,428.179352 562.398560,426.420410 
	C557.822937,425.918549 553.676086,426.694611 549.619507,429.330231 
	C535.770508,438.328247 522.318848,447.826019 509.933624,458.780762 
	C509.434418,459.222260 508.964447,459.712769 508.411499,460.074402 
	C506.946747,461.032227 505.459656,462.905487 503.627106,461.090088 
	C501.671600,459.152771 503.210541,457.384735 504.563507,455.898590 
	C512.880005,446.763428 521.864624,438.336700 531.526611,430.633118 
	C533.305237,429.214996 535.019409,427.715973 537.802673,425.383301 
	C528.560303,425.383301 520.615051,424.980682 512.722778,425.456665 
	C485.975494,427.069702 459.439850,430.397552 433.270264,436.314911 
	C430.838165,436.864868 428.435211,437.556671 425.988800,438.026917 
	C422.557373,438.686493 419.099823,438.776123 417.364197,434.992798 
	C415.812042,431.609467 416.756256,428.646637 419.470337,425.980499 
	C429.002472,416.616760 439.208374,408.054565 449.972748,400.167847 
	C490.820648,370.240082 536.696533,352.650635 586.469849,344.591644 
	C602.413574,342.010101 618.475769,340.784637 635.059326,339.769897 
M650.679932,430.141266 
	C660.459961,423.059906 670.748352,416.729645 681.779785,409.836761 
	C667.282410,404.826416 653.341736,401.822571 639.580994,398.115387 
	C625.620911,394.354431 612.910645,395.509827 600.280029,402.502197 
	C591.782776,407.206360 582.492188,410.444641 573.449524,416.113892 
	C576.383728,416.748291 578.434509,417.271362 580.513733,417.628815 
	C598.925171,420.794067 617.003784,425.337341 634.204224,432.618439 
	C640.460388,435.266754 645.379944,435.864838 650.679932,430.141266 
M528.619995,391.295197 
	C501.016876,391.624481 475.584839,398.147583 453.990234,417.905884 
	C467.666626,415.573730 480.782257,414.040314 493.977844,413.246490 
	C509.771973,412.296356 525.589722,412.087189 541.346313,413.288971 
	C549.047302,413.876373 555.772339,413.529968 562.529419,408.883514 
	C571.501160,402.714050 581.292053,397.735657 591.690979,391.687073 
	C570.272888,389.930817 549.930176,389.704285 528.619995,391.295197 
M713.111938,370.643555 
	C712.286316,370.597839 711.432678,370.391754 710.639160,370.530212 
	C696.742493,372.955078 682.855957,375.454224 669.190125,378.989746 
	C661.916992,380.871399 654.534424,382.464081 646.326355,385.810059 
	C660.121704,389.443176 672.818787,392.301788 684.597168,397.625793 
	C692.931946,401.393188 700.497437,402.563721 708.334961,396.990540 
	C709.914673,395.867157 712.014160,395.484772 713.856873,394.719482 
	C726.090759,389.638519 738.698181,385.654236 752.756409,381.979645 
	C739.337646,376.726654 726.653198,373.694183 713.111938,370.643555 
M557.872864,371.510345 
	C551.964478,373.040619 546.056152,374.570862 540.147766,376.101135 
	C541.331055,376.738251 542.401917,376.741028 543.472778,376.737823 
	C563.083801,376.679260 582.700439,376.096344 602.246338,378.573730 
	C610.690979,379.644043 619.133301,381.403168 627.459656,376.841370 
	C632.199219,374.244751 637.724060,373.049042 642.941284,371.364960 
	C649.465942,369.258820 656.037842,367.299133 662.589355,365.276184 
	C662.507141,364.811371 662.424927,364.346527 662.342712,363.881714 
	C627.494080,361.733459 592.884583,363.303925 557.872864,371.510345 
z"/>
<path fill="#000000" opacity="1.000000" stroke="none" 
	d="
M417.583923,619.421082 
	C434.555115,630.548828 451.935577,630.407837 469.764191,622.886536 
	C474.217102,621.007996 476.459747,617.912476 475.928253,612.756714 
	C475.503174,608.633362 475.770630,604.432129 475.834930,600.267090 
	C475.874237,597.721008 474.830597,596.762024 472.232544,596.784668 
	C466.407043,596.835388 460.571564,596.392151 454.755127,596.589966 
	C451.139862,596.712891 449.515839,595.729736 449.661072,591.900635 
	C449.863037,586.575562 449.783905,581.235657 449.682037,575.904846 
	C449.625946,572.968506 450.774078,571.683838 453.791962,571.697083 
	C469.123474,571.764282 484.455627,571.770996 499.787018,571.693665 
	C502.864075,571.678162 503.877106,573.064392 503.871002,575.934143 
	C503.832611,593.916443 503.824799,611.899048 503.899780,629.881226 
	C503.913055,633.062927 502.433838,635.126831 500.084503,637.017578 
	C487.216766,647.373718 472.397827,653.052551 456.096222,654.135681 
	C441.978943,655.073669 427.758087,655.085388 414.180206,649.856567 
	C388.759521,640.067017 373.479340,621.547485 368.188354,595.070312 
	C361.470276,561.451538 373.968781,527.707825 401.687897,510.351746 
	C417.199677,500.639099 434.156677,497.740845 452.389130,499.446381 
	C472.211914,501.300720 487.605133,510.439301 500.342285,525.132812 
	C503.067047,528.276062 502.834290,530.281494 499.570984,532.841370 
	C494.993011,536.432434 490.653503,540.364624 486.494476,544.439270 
	C483.778015,547.100708 482.159332,546.906921 479.788788,543.922729 
	C473.489197,535.992493 466.177094,529.235168 456.042938,526.453857 
	C433.937134,520.386963 413.604645,529.391968 403.160736,549.837158 
	C392.572388,570.565063 395.281982,595.843811 409.830444,612.595032 
	C412.039917,615.139038 414.639160,617.191528 417.583923,619.421082 
z"/>
<path fill="#000000" opacity="1.000000" stroke="none" 
	d="
M137.345474,549.970093 
	C137.347275,561.700195 137.347275,561.705994 148.773300,561.713074 
	C159.605713,561.719788 170.441620,561.871948 181.268814,561.634033 
	C185.680374,561.537109 187.721146,562.714111 187.379959,567.500366 
	C187.025391,572.474731 187.093613,577.505127 187.363876,582.489990 
	C187.589157,586.644836 185.984848,588.084167 181.889038,588.026672 
	C169.392441,587.851501 156.892090,587.937622 144.393188,587.936829 
	C137.365906,587.936401 137.357986,587.949585 137.350037,594.723816 
	C137.340851,602.556458 137.340149,610.389160 137.349442,618.221802 
	C137.357071,624.664185 137.365921,624.672363 144.056274,624.675720 
	C164.054550,624.685608 184.054092,624.810974 204.050156,624.603516 
	C208.743011,624.554871 210.713089,625.825928 210.372559,630.763245 
	C210.006485,636.070801 210.199158,641.425415 210.326645,646.755249 
	C210.403549,649.970886 209.047043,651.202271 205.872574,651.196228 
	C174.875381,651.136963 143.877991,651.122437 112.880806,651.178711 
	C109.508308,651.184814 108.611984,649.613586 108.644310,646.568420 
	C108.738045,637.736938 108.664940,628.903687 108.664917,620.071167 
	C108.664848,583.074341 108.752670,546.077026 108.568008,509.081146 
	C108.543243,504.119904 109.842850,502.494537 114.984741,502.539001 
	C142.980301,502.781219 170.979584,502.756500 198.975998,502.576782 
	C203.729950,502.546265 205.647186,503.931885 205.256531,508.798218 
	C204.924271,512.937012 205.226334,517.125183 205.212601,521.291443 
	C205.189545,528.289185 205.177811,528.309631 198.364273,528.313965 
	C180.032501,528.325745 161.698364,528.480225 143.370544,528.211121 
	C138.452576,528.138977 136.920349,529.738220 137.264282,534.484253 
	C137.624680,539.457520 137.345016,544.477234 137.345474,549.970093 
z"/>
<path fill="#000000" opacity="1.000000" stroke="none" 
	d="
M766.301758,624.000000 
	C766.303589,631.832092 766.206726,639.166138 766.349731,646.495483 
	C766.416260,649.904297 765.144897,651.333740 761.675171,651.227966 
	C756.347656,651.065552 751.002319,650.992554 745.682190,651.248596 
	C741.677490,651.441223 739.153748,650.566956 739.492615,645.919250 
	C739.547852,645.161255 739.027283,644.361328 738.730652,643.451355 
	C738.160217,643.553894 737.581116,643.479004 737.304749,643.733215 
	C714.213867,664.967468 676.122925,654.410278 665.849854,621.343750 
	C659.441650,600.717407 661.117004,580.648071 675.119141,563.186951 
	C688.483398,546.521240 713.157227,539.697266 733.544617,546.221680 
	C734.926636,546.664001 736.222229,547.621582 737.859985,547.152771 
	C739.335815,545.628052 738.775085,543.696960 738.784729,541.949829 
	C738.846191,530.785400 739.014587,519.615601 738.735657,508.457855 
	C738.616699,503.701965 740.472473,502.344635 744.899292,502.591187 
	C750.049377,502.878052 755.242981,502.916779 760.388367,502.594574 
	C764.949280,502.308960 766.401306,503.895844 766.381531,508.519318 
	C766.222900,545.679077 766.297302,582.839905 766.300476,620.000366 
	C766.300598,621.166931 766.301086,622.333435 766.301758,624.000000 
M693.385376,584.927795 
	C689.467590,594.185913 689.138611,603.642029 692.193665,613.148193 
	C696.353333,626.091492 706.701294,632.518005 719.853455,630.572998 
	C730.705994,628.968018 738.547852,619.078979 738.754395,606.404297 
	C738.914124,596.596436 738.693604,586.782288 738.864746,576.974792 
	C738.923035,573.634033 737.694458,571.553894 734.605774,570.559326 
	C717.887817,565.176025 702.583801,566.904480 693.385376,584.927795 
z"/>
<path fill="#000000" opacity="1.000000" stroke="none" 
	d="
M566.205994,575.145569 
	C558.901245,580.607361 556.414856,587.978943 556.369263,596.343933 
	C556.280273,612.668213 556.189819,628.995483 556.429932,645.316589 
	C556.497925,649.936584 555.013062,651.554199 550.445190,651.273315 
	C545.300537,650.956848 540.106079,650.944397 534.962463,651.265991 
	C530.253113,651.560486 528.900513,649.557007 528.932434,645.138550 
	C529.078247,624.983521 529.003967,604.826965 529.019165,584.670959 
	C529.027466,573.676941 529.171448,562.681274 529.015991,551.689758 
	C528.959045,547.656250 530.345093,545.900452 534.491760,546.056885 
	C539.481018,546.245117 544.494934,546.249878 549.478333,545.974609 
	C553.585510,545.747803 555.821350,546.913452 555.556580,551.444458 
	C555.463013,553.045593 556.073425,554.687927 556.439819,556.745972 
	C559.346191,554.540588 561.868347,552.435364 564.576965,550.606201 
	C573.926331,544.292297 584.264282,543.024109 595.169373,544.856079 
	C598.658569,545.442261 600.452759,546.886902 599.350342,550.911682 
	C597.816467,556.511658 596.504456,562.198547 595.561951,567.924744 
	C594.980164,571.458923 593.361511,571.718811 590.394592,571.078430 
	C581.967407,569.259583 573.848450,569.830933 566.205994,575.145569 
z"/>
<path fill="#000000" opacity="1.000000" stroke="none" 
	d="
M312.302612,647.776733 
	C312.177917,651.144897 310.075043,651.176514 308.018799,651.185059 
	C302.186554,651.209290 296.345215,650.999084 290.524780,651.262817 
	C286.210541,651.458191 284.657959,649.932007 284.703491,645.528076 
	C284.894775,627.033020 284.799500,608.535034 284.808685,590.038086 
	C284.814850,577.540161 285.046356,565.036377 284.718170,552.547180 
	C284.580902,547.324219 286.623352,545.801270 291.426849,546.053711 
	C296.078583,546.298157 300.762604,546.218872 305.418945,545.997681 
	C309.445801,545.806396 311.921265,546.797668 311.412659,551.483887 
	C311.236176,553.109497 311.490662,554.805298 312.551666,556.612915 
	C315.601349,554.328552 318.457916,551.866638 321.615601,549.884399 
	C330.826477,544.102356 340.882568,543.073608 351.418488,544.980164 
	C355.038513,545.635315 355.966980,547.660339 355.181213,551.010559 
	C353.891266,556.510315 352.469452,561.996277 351.563019,567.562866 
	C350.968903,571.211853 349.376404,571.721741 346.090332,571.042358 
	C338.955078,569.567200 331.931396,569.653625 325.220886,573.257690 
	C316.562561,577.907837 312.467102,585.236328 312.388245,594.807678 
	C312.244049,612.303650 312.331726,629.801575 312.302612,647.776733 
z"/>
<path fill="#000000" opacity="1.000000" stroke="none" 
	d="
M259.877441,563.282593 
	C259.886047,590.538025 259.905426,617.326538 259.886230,644.115112 
	C259.881256,651.042603 259.704590,651.175232 252.987213,651.188049 
	C247.496414,651.198547 242.004990,651.136414 236.515015,651.202515 
	C233.669296,651.236816 232.381805,650.332336 232.397461,647.137939 
	C232.551514,615.692505 232.559967,584.246460 232.607315,552.800537 
	C232.617264,546.201477 232.653656,546.142212 239.254730,546.090881 
	C244.578903,546.049500 249.904984,546.129822 255.227295,546.017822 
	C258.656250,545.945801 260.022308,547.501587 259.913940,550.855652 
	C259.785278,554.838623 259.877380,558.828735 259.877441,563.282593 
z"/>
<path fill="#000000" opacity="1.000000" stroke="none" 
	d="
M642.218079,587.000000 
	C642.214294,606.638489 642.092957,625.778137 642.290100,644.914551 
	C642.338379,649.597595 641.001038,651.584473 636.080811,651.279236 
	C630.443787,650.929688 624.767456,651.101990 619.111511,651.214905 
	C615.892517,651.279114 614.689331,649.893616 614.694031,646.735962 
	C614.741943,614.616699 614.749695,582.497375 614.672485,550.378235 
	C614.664307,546.970154 616.358276,546.059143 619.283997,546.062744 
	C625.275024,546.070129 631.267273,546.093933 637.256714,545.984802 
	C640.822327,545.919922 642.302734,547.380249 642.260620,551.052795 
	C642.124939,562.867126 642.214905,574.684082 642.218079,587.000000 
z"/>
<path fill="#000000" opacity="1.000000" stroke="none" 
	d="
M642.875977,504.374634 
	C643.087097,512.139404 643.087830,519.457581 643.217529,526.773499 
	C643.273926,529.956970 641.895203,531.261902 638.727112,531.214478 
	C631.907532,531.112305 625.084778,531.126160 618.264587,531.203186 
	C615.232178,531.237366 613.615417,530.228271 613.676270,526.894226 
	C613.800720,520.075439 613.721130,513.252869 613.715271,506.431824 
	C613.713562,504.401917 614.170471,502.722626 616.659241,502.729858 
	C624.807739,502.753510 632.956360,502.788757 641.103943,502.898193 
	C641.646423,502.905487 642.180115,503.568909 642.875977,504.374634 
z"/>
<path fill="#000000" opacity="1.000000" stroke="none" 
	d="
M254.844147,531.175293 
	C248.366608,531.176270 242.371307,531.080200 236.380997,531.211365 
	C233.038773,531.284546 231.526459,530.107605 231.621841,526.578430 
	C231.797180,520.090515 231.772339,513.592468 231.636581,507.102722 
	C231.570801,503.957764 232.656708,502.558319 235.943405,502.628418 
	C242.599487,502.770386 249.264877,502.812866 255.918182,502.616669 
	C259.561371,502.509216 260.459900,504.170502 260.382660,507.432098 
	C260.232880,513.754761 260.174194,520.089172 260.396210,526.407471 
	C260.531128,530.248047 258.825012,531.506287 254.844147,531.175293 
z"/>
</svg>